<svg xmlns="http://www.w3.org/2000/svg" version="1.1" xmlns:xlink="http://www.w3.org/1999/xlink" width="1500" height="1500" viewBox="0 0 1500 1500"><rect width="1500" height="1500" x="0" y="0" id="background" stroke="transparent" fill="#000000"></rect><svg xml:space="preserve" width="1000" height="1000" data-version="2" data-id="lg_NkJDvDDaUiSjTwag10" viewBox="0 0 563 290" x="250" y="250"><rect width="100%" height="100%" fill="transparent"></rect><circle r="10.2" fill="#00ffe0" transform="translate(139.39 212.91)scale(1.5867)"></circle><circle r="2" fill="#00ffe0" transform="translate(139.39 185.302)scale(1.5867)"></circle><circle r="2" fill="#00ffe0" transform="translate(166.997 157.693)scale(1.5867)"></circle><circle r="2" fill="#00ffe0" transform="translate(166.997 212.91)scale(1.5867)"></circle><circle r="10.2" fill="#00ffe0" transform="translate(166.997 185.302)scale(1.5867)"></circle><circle r="10.2" fill="#00ffe0" transform="translate(139.39 157.693)scale(1.5867)"></circle><circle r="2" fill="#00ffe0" transform="translate(139.39 130.085)scale(1.5867)"></circle><circle r="2" fill="#00ffe0" transform="translate(166.997 102.477)scale(1.5867)"></circle><circle r="10.2" fill="#00ffe0" transform="translate(139.39 102.477)scale(1.5867)"></circle><circle r="10.2" fill="#00ffe0" transform="translate(166.997 130.085)scale(1.5867)"></circle><circle r="10.2" fill="#00ffe0" transform="translate(194.605 212.91)scale(1.5867)"></circle><circle r="2" fill="#00ffe0" transform="translate(194.605 185.302)scale(1.5867)"></circle><circle r="2" fill="#00ffe0" transform="translate(222.214 157.693)scale(1.5867)"></circle><circle r="2" fill="#00ffe0" transform="translate(222.214 212.91)scale(1.5867)"></circle><circle r="10.2" fill="#00ffe0" transform="translate(222.214 185.302)scale(1.5867)"></circle><circle r="10.2" fill="#00ffe0" transform="translate(194.605 157.693)scale(1.5867)"></circle><circle r="2" fill="#00ffe0" transform="translate(194.605 130.085)scale(1.5867)"></circle><circle r="2" fill="#00ffe0" transform="translate(222.214 102.477)scale(1.5867)"></circle><circle r="10.2" fill="#00ffe0" transform="translate(194.605 102.477)scale(1.5867)"></circle><circle r="10.2" fill="#00ffe0" transform="translate(249.822 212.91)scale(1.5867)"></circle><circle r="2" fill="#00ffe0" transform="translate(249.822 185.302)scale(1.5867)"></circle><circle r="10.2" fill="#00ffe0" transform="translate(249.822 157.693)scale(1.5867)"></circle><circle r="2" fill="#00ffe0" transform="translate(249.822 130.085)scale(1.5867)"></circle><circle r="10.2" fill="#00ffe0" transform="translate(249.822 102.477)scale(1.5867)"></circle><circle r="10.2" fill="#00ffe0" transform="translate(222.214 130.085)scale(1.5867)"></circle><circle r="10.2" fill="#00ffe0" transform="translate(166.894 129.81)scale(1.5867)"></circle><circle r="2" fill="#00ffe0" transform="translate(166.894 102.202)scale(1.5867)"></circle><circle r="2" fill="#00ffe0" transform="translate(194.503 74.593)scale(1.5867)"></circle><circle r="2" fill="#00ffe0" transform="translate(194.503 129.81)scale(1.5867)"></circle><circle r="10.2" fill="#00ffe0" transform="translate(194.503 102.202)scale(1.5867)"></circle><circle r="10.2" fill="#00ffe0" transform="translate(166.894 74.593)scale(1.5867)"></circle><circle r="2" fill="#00ffe0" transform="translate(166.894 46.985)scale(1.5867)"></circle><circle r="2" fill="#00ffe0" transform="translate(194.503 19.377)scale(1.5867)"></circle><circle r="10.2" fill="#00ffe0" transform="translate(166.894 19.377)scale(1.5867)"></circle><circle r="10.2" fill="#00ffe0" transform="translate(194.503 46.985)scale(1.5867)"></circle><circle r="10.2" fill="#00ffe0" transform="translate(222.11 129.81)scale(1.5867)"></circle><circle r="2" fill="#00ffe0" transform="translate(222.11 102.202)scale(1.5867)"></circle><circle r="2" fill="#00ffe0" transform="translate(249.719 74.593)scale(1.5867)"></circle><circle r="2" fill="#00ffe0" transform="translate(249.719 129.81)scale(1.5867)"></circle><circle r="10.2" fill="#00ffe0" transform="translate(249.719 102.202)scale(1.5867)"></circle><circle r="10.2" fill="#00ffe0" transform="translate(222.11 74.593)scale(1.5867)"></circle><circle r="2" fill="#00ffe0" transform="translate(222.11 46.985)scale(1.5867)"></circle><circle r="2" fill="#00ffe0" transform="translate(249.719 19.377)scale(1.5867)"></circle><circle r="10.2" fill="#00ffe0" transform="translate(222.11 19.377)scale(1.5867)"></circle><circle r="10.2" fill="#00ffe0" transform="translate(277.327 129.81)scale(1.5867)"></circle><circle r="2" fill="#00ffe0" transform="translate(277.327 102.202)scale(1.5867)"></circle><circle r="10.2" fill="#00ffe0" transform="translate(277.327 74.593)scale(1.5867)"></circle><circle r="2" fill="#00ffe0" transform="translate(277.327 46.985)scale(1.5867)"></circle><circle r="10.2" fill="#00ffe0" transform="translate(277.327 19.377)scale(1.5867)"></circle><circle r="10.2" fill="#00ffe0" transform="translate(249.719 46.985)scale(1.5867)"></circle><circle r="10.2" fill="#00ffe0" transform="translate(249.933 212.962)scale(1.5867)"></circle><circle r="2" fill="#00ffe0" transform="translate(249.933 185.354)scale(1.5867)"></circle><circle r="2" fill="#00ffe0" transform="translate(277.541 157.746)scale(1.5867)"></circle><circle r="2" fill="#00ffe0" transform="translate(277.541 212.962)scale(1.5867)"></circle><circle r="10.2" fill="#00ffe0" transform="translate(277.541 185.354)scale(1.5867)"></circle><circle r="10.2" fill="#00ffe0" transform="translate(249.933 157.746)scale(1.5867)"></circle><circle r="2" fill="#00ffe0" transform="translate(249.933 130.138)scale(1.5867)"></circle><circle r="2" fill="#00ffe0" transform="translate(277.541 102.53)scale(1.5867)"></circle><circle r="10.2" fill="#00ffe0" transform="translate(249.933 102.53)scale(1.5867)"></circle><circle r="10.2" fill="#00ffe0" transform="translate(277.541 130.138)scale(1.5867)"></circle><circle r="10.2" fill="#00ffe0" transform="translate(305.15 212.962)scale(1.5867)"></circle><circle r="2" fill="#00ffe0" transform="translate(305.15 185.354)scale(1.5867)"></circle><circle r="2" fill="#00ffe0" transform="translate(332.758 157.746)scale(1.5867)"></circle><circle r="2" fill="#00ffe0" transform="translate(332.758 212.962)scale(1.5867)"></circle><circle r="10.2" fill="#00ffe0" transform="translate(332.758 185.354)scale(1.5867)"></circle><circle r="10.2" fill="#00ffe0" transform="translate(305.15 157.746)scale(1.5867)"></circle><circle r="2" fill="#00ffe0" transform="translate(305.15 130.138)scale(1.5867)"></circle><circle r="2" fill="#00ffe0" transform="translate(332.758 102.53)scale(1.5867)"></circle><circle r="10.2" fill="#00ffe0" transform="translate(305.15 102.53)scale(1.5867)"></circle><circle r="10.2" fill="#00ffe0" transform="translate(360.366 212.962)scale(1.5867)"></circle><circle r="2" fill="#00ffe0" transform="translate(360.366 185.354)scale(1.5867)"></circle><circle r="10.2" fill="#00ffe0" transform="translate(360.366 157.746)scale(1.5867)"></circle><circle r="2" fill="#00ffe0" transform="translate(360.366 130.138)scale(1.5867)"></circle><circle r="10.2" fill="#00ffe0" transform="translate(360.366 102.53)scale(1.5867)"></circle><circle r="10.2" fill="#00ffe0" transform="translate(332.758 130.138)scale(1.5867)"></circle><circle r="10.2" fill="#00ffe0" transform="translate(305.765 269.14)scale(1.5954)"></circle><circle r="2" fill="#00ffe0" transform="translate(305.765 241.38)scale(1.5954)"></circle><circle r="2" fill="#00ffe0" transform="translate(333.525 213.62)scale(1.5954)"></circle><circle r="2" fill="#00ffe0" transform="translate(333.525 269.14)scale(1.5954)"></circle><circle r="10.2" fill="#00ffe0" transform="translate(333.525 241.38)scale(1.5954)"></circle><circle r="10.2" fill="#00ffe0" transform="translate(305.765 213.62)scale(1.5954)"></circle><circle r="2" fill="#00ffe0" transform="translate(305.765 185.86)scale(1.5954)"></circle><circle r="2" fill="#00ffe0" transform="translate(333.525 158.1)scale(1.5954)"></circle><circle r="10.2" fill="#00ffe0" transform="translate(305.765 158.1)scale(1.5954)"></circle><circle r="10.2" fill="#00ffe0" transform="translate(333.525 185.86)scale(1.5954)"></circle><circle r="10.2" fill="#00ffe0" transform="translate(361.285 269.14)scale(1.5954)"></circle><circle r="2" fill="#00ffe0" transform="translate(361.285 241.38)scale(1.5954)"></circle><circle r="2" fill="#00ffe0" transform="translate(389.045 213.62)scale(1.5954)"></circle><circle r="2" fill="#00ffe0" transform="translate(389.045 269.14)scale(1.5954)"></circle><circle r="10.2" fill="#00ffe0" transform="translate(389.045 241.38)scale(1.5954)"></circle><circle r="10.2" fill="#00ffe0" transform="translate(361.285 213.62)scale(1.5954)"></circle><circle r="2" fill="#00ffe0" transform="translate(361.285 185.86)scale(1.5954)"></circle><circle r="2" fill="#00ffe0" transform="translate(389.045 158.1)scale(1.5954)"></circle><circle r="10.2" fill="#00ffe0" transform="translate(361.285 158.1)scale(1.5954)"></circle><circle r="10.2" fill="#00ffe0" transform="translate(416.805 269.14)scale(1.5954)"></circle><circle r="2" fill="#00ffe0" transform="translate(416.805 241.38)scale(1.5954)"></circle><circle r="10.2" fill="#00ffe0" transform="translate(416.805 213.62)scale(1.5954)"></circle><circle r="2" fill="#00ffe0" transform="translate(416.805 185.86)scale(1.5954)"></circle><circle r="10.2" fill="#00ffe0" transform="translate(416.805 158.1)scale(1.5954)"></circle><circle r="10.2" fill="#00ffe0" transform="translate(389.045 185.86)scale(1.5954)"></circle><g transform="translate(281.5 150.32)"><filter id="a" width="145.44%" height="180.88%" x="-22.72%" y="-40.44%"><feGaussianBlur in="SourceAlpha" stdDeviation="4"></feGaussianBlur><feOffset dx="7" dy="7" result="oBlur"></feOffset><feFlood flood-color="#F75CFF" flood-opacity="1"></feFlood><feComposite in2="oBlur" operator="in"></feComposite><feMerge><feMergeNode></feMergeNode><feMergeNode in="SourceGraphic"></feMergeNode></feMerge></filter><g filter="url(#a)"><path fill="#e111b9" stroke="#fff" stroke-width="5.18" d="M-247.195-32.26q11.32 0 17.91 5.66 6.58 5.66 6.58 16.17h-15.61q0-4.44-2.33-7.03t-6.63-2.59q-4.95 0-7.28 3.1-2.34 3.11-2.34 8.66v4.74q0 5.47 2.34 8.62 2.33 3.14 7.14 3.14 4.73 0 7.17-2.44 2.45-2.44 2.45-6.88h15.09q0 10.43-6.4 15.98-6.4 5.55-18.09 5.55-13.03 0-19.72-6.66-6.7-6.66-6.7-19.68t6.7-19.68q6.69-6.66 19.72-6.66zm52.46 11.84q10.29 0 16.17 5.21 5.89 5.22 5.89 15.21 0 9.99-5.89 15.21-5.88 5.21-16.17 5.21-10.28 0-16.13-5.18-5.84-5.18-5.84-15.24t5.84-15.24q5.85-5.18 16.13-5.18zm0 9.99q-7.25 0-7.25 8.36v4.22q0 8.28 7.25 8.28 7.33 0 7.33-8.28v-4.22q0-8.36-7.33-8.36zm44.4 29.97h-14.72v-53.65h14.72zm29.6-39.96q10.29 0 16.17 5.21 5.89 5.22 5.89 15.21 0 9.99-5.89 15.21-5.88 5.21-16.17 5.21-10.28 0-16.13-5.18-5.84-5.18-5.84-15.24t5.84-15.24q5.85-5.18 16.13-5.18zm0 9.99q-7.25 0-7.25 8.36v4.22q0 8.28 7.25 8.28 7.33 0 7.33-8.28v-4.22q0-8.36-7.33-8.36zm52.91-10.07q1.71 0 3.04.41t1.33.48v12.36h-4.74q-4.58 0-6.62 2.37-2.03 2.36-2.03 7.03v17.39h-14.73v-39.08h12.06l.96 5.92q1.34-3.4 4.22-5.14 2.89-1.74 6.51-1.74zm27.68.08q7.84 0 13.28 3.07 5.44 3.07 5.44 9.51h-13.69q0-2.15-1.92-3.04-1.33-.74-3.33-.74-5.33 0-5.33 2.52 0 1.4 1.85 2 1.85.59 6.07 1.25 5.18.74 8.66 1.74 3.47 1 6.06 3.55 2.59 2.56 2.59 7.15 0 7.47-5.58 10.65-5.59 3.18-14.62 3.18-5.18 0-9.77-1.44-4.58-1.44-7.47-4.48-2.89-3.03-2.89-7.69h13.69v.29q.08 2.52 2.11 3.52 2.04 1 4.33 1 6.14 0 6.14-2.89 0-1.48-1.92-2.14-1.92-.67-6.29-1.41-5.25-.89-8.62-1.92-3.37-1.04-5.88-3.52-2.52-2.48-2.52-6.92 0-7.18 5.44-10.21 5.44-3.03 14.17-3.03zm103.01 39.96h-16.36V.22h-17.98v19.32h-16.35v-50.92h16.35v18.58h17.98v-18.58h16.36zm30.12-39.96q10.73 0 16.39 5.03T115.035 0v2.52h-29.31q0 4.21 1.89 6.36 1.89 2.15 5.96 2.15 3.7 0 5.44-1.56 1.74-1.55 1.74-4.14h14.28q0 7.1-5.4 11.1-5.41 3.99-15.77 3.99-10.87 0-16.87-5.07-5.99-5.06-5.99-15.35 0-10.06 5.84-15.24 5.85-5.18 16.14-5.18zm.59 9.39q-6.96 0-7.77 6.59h14.35q0-3.03-1.73-4.81-1.74-1.78-4.85-1.78zm43.81 30.57h-14.73v-53.65h14.73zm35.15-39.96q7.91 0 12.21 5.18 4.29 5.18 4.29 15.31 0 10.07-4.29 15.21-4.3 5.14-12.21 5.14-6.81 0-10.96-4.44v18.13h-14.72v-53.65h11.99l1.25 5.55q4.3-6.43 12.44-6.43zm-4.59 10.87q-3.26 0-4.89 2.3-1.62 2.29-1.62 5.99v2.44q0 3.7 1.62 6.03 1.63 2.34 4.89 2.34 6.36 0 6.36-7.63V-2q0-7.55-6.36-7.55zm48.39-10.87q10.73 0 16.4 5.03 5.66 5.03 5.66 15.39v2.52h-29.31q0 4.21 1.89 6.36 1.89 2.15 5.96 2.15 3.7 0 5.43-1.56 1.74-1.55 1.74-4.14h14.29q0 7.1-5.41 11.1-5.4 3.99-15.76 3.99-10.88 0-16.87-5.07-5.99-5.06-5.99-15.35 0-10.06 5.84-15.24 5.85-5.18 16.13-5.18zm.6 9.39q-6.96 0-7.77 6.59h14.35q0-3.03-1.74-4.81-1.74-1.78-4.84-1.78zm52.31-9.47q1.71 0 3.04.41t1.33.48v12.36h-4.74q-4.58 0-6.62 2.37-2.03 2.36-2.03 7.03v17.39h-14.73v-39.08h12.06l.96 5.92q1.34-3.4 4.22-5.14 2.89-1.74 6.51-1.74z" paint-order="stroke"></path></g></g></svg></svg>